{
	"patcher" : 	{
		"fileversion" : 1,
		"appversion" : 		{
			"major" : 7,
			"minor" : 3,
			"revision" : 4,
			"architecture" : "x86",
			"modernui" : 1
		}
,
		"rect" : [ 1784.0, 79.0, 858.0, 860.0 ],
		"editing_bgcolor" : [ 0.9, 0.9, 0.9, 1.0 ],
		"bglocked" : 0,
		"openinpresentation" : 0,
		"default_fontsize" : 12.0,
		"default_fontface" : 0,
		"default_fontname" : "Arial",
		"gridonopen" : 1,
		"gridsize" : [ 15.0, 15.0 ],
		"gridsnaponopen" : 1,
		"objectsnaponopen" : 1,
		"statusbarvisible" : 2,
		"toolbarvisible" : 1,
		"lefttoolbarpinned" : 0,
		"toptoolbarpinned" : 0,
		"righttoolbarpinned" : 0,
		"bottomtoolbarpinned" : 0,
		"toolbars_unpinned_last_save" : 0,
		"tallnewobj" : 0,
		"boxanimatetime" : 200,
		"enablehscroll" : 1,
		"enablevscroll" : 1,
		"devicewidth" : 0.0,
		"description" : "",
		"digest" : "",
		"tags" : "",
		"style" : "",
		"subpatcher_template" : "",
		"boxes" : [ 			{
				"box" : 				{
					"id" : "obj-5",
					"maxclass" : "newobj",
					"numinlets" : 0,
					"numoutlets" : 1,
					"outlettype" : [ "" ],
					"patching_rect" : [ 170.0, 731.0, 209.0, 22.0 ],
					"style" : "",
					"text" : "param updateFrequency @default 20"
				}

			}
, 			{
				"box" : 				{
					"id" : "obj-4",
					"maxclass" : "newobj",
					"numinlets" : 0,
					"numoutlets" : 1,
					"outlettype" : [ "" ],
					"patching_rect" : [ 311.833344, 30.666666, 325.0, 22.0 ],
					"style" : "",
					"text" : "in 3 @comment feedback @default 0. @min 0. @max 0.95"
				}

			}
, 			{
				"box" : 				{
					"id" : "obj-6",
					"maxclass" : "newobj",
					"numinlets" : 1,
					"numoutlets" : 0,
					"patching_rect" : [ 20.166664, 717.333313, 37.0, 22.0 ],
					"style" : "",
					"text" : "out 1"
				}

			}
, 			{
				"box" : 				{
					"code" : "//declare the delay operater named d, define the maximum delay time, and the number of taps\r\nDelay d(samplerate*5, 2);\r\n//Define a history operation to work with feedback\r\nHistory h(0);\r\n\r\n//the delay time is received in input 2\r\ndelayTime = mstosamps(in2);\r\n//feedback will equal the previous sample from the delay\r\n//* the feedback amount\r\nfb = h * in3;\r\n\r\n//method to write in the delay buffers\r\n//add feedback to the incoming signal and write to the delay line\r\nd.write(in1+fb);\r\n\r\n//the cross fade values based on a sine tone\r\n//with a frequency of 20 hz we can update the delay time for each tap every 20 seconds, \r\n//since these are updated at 180 degrees out of phase, that is 40 times per second or every\r\n//25 ms, we could even go faster\r\ncf1 = (cycle(updateFrequency)+ 1) * .5;\r\ncf2 = 1 - cf1;\r\n//two latches toggle the left/right\r\n//delay times when the gain cofficients are low\r\n//.000001 is -120 db\r\n//when the value from the cycle crosses below -120 dB then the delay time will update\r\ndt1 = latch(delayTime, cf1 < .000001);\r\ndt2 = latch(delayTime, cf2 < .000001);\r\n\r\n//the read methods of the delay lines\r\ntap1 = d.read(dt1);\r\ntap2 = d.read(dt2);\r\n\r\n//calculate the output\r\n//the output will be the scaled taps added together\r\n//the delay times will change when the taps are near silent\r\noutput = (tap1 *cf1)  + (tap2*cf2);\r\n\r\n//send out\r\nout1 = output;\r\n\r\n//set the feedback sample\r\nh = output;\r\n\r\n\r\n",
					"fontface" : 0,
					"fontname" : "Arial",
					"fontsize" : 12.0,
					"id" : "obj-3",
					"maxclass" : "codebox",
					"numinlets" : 3,
					"numoutlets" : 1,
					"outlettype" : [ "" ],
					"patching_rect" : [ 20.166664, 93.666664, 703.333313, 598.0 ],
					"style" : ""
				}

			}
, 			{
				"box" : 				{
					"id" : "obj-1",
					"maxclass" : "newobj",
					"numinlets" : 0,
					"numoutlets" : 1,
					"outlettype" : [ "" ],
					"patching_rect" : [ 13.5, 2.0, 159.0, 22.0 ],
					"style" : "",
					"text" : "in 1 @comment input signal"
				}

			}
, 			{
				"box" : 				{
					"id" : "obj-2",
					"maxclass" : "newobj",
					"numinlets" : 0,
					"numoutlets" : 1,
					"outlettype" : [ "" ],
					"patching_rect" : [ 178.0, 2.0, 378.0, 22.0 ],
					"style" : "",
					"text" : "in 2 @comment delay time @default 25 @min 1 @max samplerate*5"
				}

			}
 ],
		"lines" : [ 			{
				"patchline" : 				{
					"destination" : [ "obj-3", 0 ],
					"midpoints" : [ 23.0, 46.333332, 29.666664, 46.333332 ],
					"source" : [ "obj-1", 0 ]
				}

			}
, 			{
				"patchline" : 				{
					"destination" : [ "obj-3", 1 ],
					"midpoints" : [ 187.5, 64.333336, 371.833313, 64.333336 ],
					"source" : [ "obj-2", 0 ]
				}

			}
, 			{
				"patchline" : 				{
					"destination" : [ "obj-6", 0 ],
					"source" : [ "obj-3", 0 ]
				}

			}
, 			{
				"patchline" : 				{
					"destination" : [ "obj-3", 2 ],
					"midpoints" : [ 321.333344, 60.666664, 714.0, 60.666664 ],
					"source" : [ "obj-4", 0 ]
				}

			}
 ]
	}

}
